<?xml version='1.0' encoding='UTF-8'?>
<svg xmlns="http://www.w3.org/2000/svg" width="290" height="150" viewBox="120 150 290 150" fill="none" role="img" aria-label="DIC Mechanical logo">
  <defs/>
  <path d="m 216.19672,395.02798 c -1.10766,-0.32211 -2.57343,-1.72324 -3.10589,-2.96895 -0.50151,-1.17334 -0.59427,-1.70889 -0.55082,-3.18058 l 0.026,-0.88067 h 1.61365 1.61363 l 0.15661,1.1805 c 0.22944,1.72963 1.15285,2.69441 2.57881,2.69441 1.4239,0 2.04844,-0.61495 2.19724,-2.16337 0.0942,-0.98002 0.0225,-1.24997 -0.49582,-1.86587 -0.33327,-0.39605 -1.37501,-1.12281 -2.31499,-1.61504 -4.01375,-2.10188 -5.35369,-3.77489 -5.34397,-6.67237 0.006,-1.88404 0.52661,-3.12875 1.76092,-4.21246 1.25782,-1.10437 2.19696,-1.43719 4.03874,-1.43121 1.97763,0.006 3.20466,0.52809 4.32754,1.83989 1.00452,1.17359 1.37494,2.31587 1.37494,4.24013 v 1.45124 l -1.58306,-0.0694 -1.58307,-0.0695 -0.16672,-1.17099 c -0.27326,-1.9191 -0.39907,-2.20893 -1.1209,-2.58223 -0.86833,-0.44902 -1.72316,-0.45334 -2.57475,-0.013 -0.79278,0.40997 -0.95616,0.77279 -0.95616,2.12344 0,1.31889 0.70363,2.04213 3.43575,3.53139 3.57424,1.94834 4.7686,3.4499 4.77858,6.00779 0.0143,3.66654 -2.34157,6.10386 -5.85329,6.05552 -0.84649,-0.0116 -1.86033,-0.11457 -2.25297,-0.22876 z m 41.02897,-0.36145 c -1.50428,-0.74962 -2.29408,-1.74681 -2.88352,-3.64067 -0.40113,-1.28889 -0.44359,-2.07171 -0.38561,-7.11118 0.0621,-5.40247 0.0905,-5.71423 0.61712,-6.77984 1.04449,-2.11362 2.94775,-3.21733 5.548,-3.21733 3.52416,0 5.79979,2.2339 5.85064,5.74333 l 0.0204,1.40907 -1.70262,0.069 -1.70262,0.069 v -0.9572 c 0,-1.39986 -0.518,-2.45179 -1.38403,-2.81051 -1.02529,-0.42469 -2.36978,-0.16555 -3.01926,0.58192 -0.51769,0.59579 -0.52839,0.72726 -0.52839,6.48417 v 5.87603 l 0.68647,0.68648 c 0.89456,0.89456 2.48293,0.96788 3.424,0.15807 0.53314,-0.45879 0.61995,-0.72949 0.65892,-2.05486 l 0.0449,-1.52649 -1.00544,-0.019 c -0.55296,-0.0106 -1.11353,-0.12719 -1.24566,-0.25932 -0.13214,-0.13213 -0.2081,-0.86331 -0.16881,-1.62483 l 0.0715,-1.38462 h 2.93552 2.93555 l 0.0664,2.79016 c 0.0778,3.27012 -0.25593,4.73401 -1.39207,6.10545 -1.66888,2.01451 -4.97482,2.64234 -7.44142,1.41319 z m 153.38093,0.12157 c -1.38123,-0.68371 -2.55704,-2.07216 -2.99032,-3.53115 -0.52756,-1.77649 -0.53023,-12.12623 -0.003,-13.62144 0.45889,-1.30275 2.02287,-2.90915 3.31136,-3.40124 1.60565,-0.6132 4.18584,-0.38394 5.60089,0.49762 1.57273,0.97984 2.49425,2.65944 2.64951,4.82915 l 0.11634,1.62629 h -1.79287 -1.7929 v -1.06847 c 0,-1.45507 -0.50893,-2.3532 -1.52321,-2.68793 -1.11683,-0.36859 -2.10047,-0.11049 -2.81503,0.73872 l -0.59346,0.7053 v 5.48974 c 0,3.64839 0.0909,5.68925 0.27104,6.08459 0.357,0.78356 1.19822,1.31387 2.13894,1.34842 1.71551,0.063 2.24677,-0.46775 2.49378,-2.49163 l 0.14536,-1.19086 1.73421,-0.0696 1.73419,-0.0696 -0.11213,1.74741 c -0.17415,2.7136 -1.36896,4.37685 -3.74679,5.21581 -1.43172,0.50512 -3.6394,0.43604 -4.82539,-0.15105 z m 64.87054,0.11454 c -1.13215,-0.41441 -2.33363,-1.52664 -3.01935,-2.79511 -0.48678,-0.90043 -0.50781,-1.21756 -0.50781,-7.6508 v -6.71144 l 0.71072,-1.14959 c 1.08,-1.74686 2.54228,-2.54982 4.83317,-2.65396 2.3349,-0.10615 4.03021,0.58227 5.11223,2.07595 1.10006,1.51858 1.2519,2.7287 1.16443,9.27939 -0.0739,5.53122 -0.10853,5.9274 -0.5987,6.84395 -0.65807,1.23042 -2.14344,2.51142 -3.32137,2.86432 -1.21745,0.36476 -3.22498,0.31761 -4.37332,-0.10271 z m 4.03341,-3.71377 0.65892,-0.56639 0.0708,-5.69648 c 0.051,-4.10128 -0.01,-5.89074 -0.21656,-6.39035 -0.27924,-0.67413 -1.38211,-1.34064 -2.21838,-1.34064 -0.71183,0 -1.91373,0.72353 -2.18275,1.314 -0.17466,0.38325 -0.26742,2.41876 -0.26742,5.86729 0,6.74457 0.20802,7.35513 2.51148,7.37182 0.7094,0.005 1.16932,-0.15131 1.64388,-0.55925 z m -458.42341,3.50986 c -0.228596,-0.59569 -0.177682,-19.91924 0.05344,-20.28389 0.156671,-0.24717 1.025224,-0.29731 4.066714,-0.23484 3.833672,0.0788 3.877532,0.0857 5.01623,0.7902 1.421108,0.87927 2.360977,2.3444 2.707692,4.22098 0.158515,0.85794 0.224756,3.29203 0.169368,6.22332 -0.08362,4.42537 -0.135287,4.91403 -0.63954,6.04893 -0.301712,0.67905 -0.923835,1.56411 -1.382496,1.96683 -1.439476,1.26386 -2.171752,1.4492 -6.175214,1.563 -3.287226,0.0934 -3.678932,0.0632 -3.816197,-0.29453 z m 7.10575,-3.51949 c 1.156136,-0.59785 1.313047,-1.39904 1.313047,-6.70412 0,-3.50044 -0.08602,-5.01806 -0.315219,-5.56101 -0.433893,-1.02791 -1.56628,-1.52598 -3.267522,-1.43722 l -1.348958,0.0704 -0.0622,6.98656 -0.06221,6.98659 h 1.541635 c 0.888786,0 1.821042,-0.14446 2.201426,-0.34118 z m 16.225573,3.46858 c 0,-0.21735 0.575958,-3.41415 1.279908,-7.10398 1.227561,-6.43438 2.477577,-13.15606 2.477577,-13.32259 0,-0.0435 1.045946,-0.0792 2.324325,-0.0792 h 2.32432 l 0.262146,1.46775 c 0.144182,0.80727 0.990433,5.43065 1.88056,10.27417 0.89013,4.84351 1.569369,8.88576 1.509425,8.98273 -0.05995,0.097 -0.791935,0.17635 -1.626648,0.17635 -1.639597,0 -1.735466,-0.0784 -2.082911,-1.7026 l -0.138147,-0.64582 h -2.215894 -2.21589 l -0.146362,0.88067 c -0.248778,1.4969 -0.209429,1.46775 -1.98114,1.46775 -1.39102,0 -1.651269,-0.0623 -1.651269,-0.39524 z m 7.514973,-5.68788 c 0,-0.32255 -1.061834,-6.78669 -1.431076,-8.71199 -0.02823,-0.14716 -1.591098,8.46471 -1.608865,8.86534 -0.0091,0.20606 0.441897,0.29353 1.513462,0.29353 1.343978,0 1.526479,-0.0534 1.526479,-0.44688 z m 19.136881,5.80038 c -0.06258,-0.1674 -0.14039,-4.10882 -0.172905,-8.75871 l -0.05912,-8.45434 -1.935356,-0.0682 c -2.191581,-0.0772 -2.275371,-0.16298 -2.131137,-2.18168 l 0.07416,-1.03793 5.940605,-0.0628 5.940608,-0.0627 -0.06954,1.58924 -0.06953,1.58925 -1.996165,0.11742 -1.996165,0.11742 -0.117422,8.68918 -0.117422,8.68918 -1.588413,0.0695 c -1.137507,0.0498 -1.620715,-0.0169 -1.702202,-0.23485 z m 17.968299,-0.20314 c 0,-0.40013 3.250795,-18.11939 3.649985,-19.89516 0.116858,-0.51983 0.192598,-0.5347 2.393526,-0.46969 l 2.272851,0.0671 0.430794,2.11357 c 1.002956,4.92075 3.399698,18.33197 3.305068,18.49387 -0.0566,0.0969 -0.82808,0.17614 -1.714337,0.17614 h -1.611381 l -0.153615,-0.7632 c -0.337799,-1.67835 -0.186034,-1.58517 -2.581563,-1.58517 h -2.196523 l -0.153615,0.76324 c -0.331584,1.64749 -0.25246,1.58518 -2.013117,1.58518 -1.48962,0 -1.628073,-0.0413 -1.628073,-0.48588 z m 7.514971,-5.56104 c 0,-0.35555 -1.329299,-8.03315 -1.489964,-8.60552 -0.05365,-0.19116 -1.584699,8.43214 -1.569538,8.8401 0.0036,0.0969 0.69346,0.1761 1.533025,0.1761 1.296816,0 1.526477,-0.0618 1.526477,-0.41068 z m 74.141703,5.89999 c -0.0914,-0.0914 -0.16618,-4.79845 -0.16618,-10.46014 v -10.29393 h 1.76376 1.76376 l -0.0611,10.39177 -0.0611,10.3918 -1.53643,0.0684 c -0.84504,0.0376 -1.61121,-0.006 -1.70261,-0.0978 z m 16.90868,0 c -0.0914,-0.0914 -0.16618,-4.79845 -0.16618,-10.46014 v -10.29393 h 1.49774 c 0.92218,0 1.58375,0.11279 1.72163,0.29355 0.12315,0.16145 1.32499,2.80485 2.67073,5.87428 l 2.44683,5.58073 0.0608,-5.69815 c 0.048,-4.49739 0.1286,-5.74871 0.38253,-5.9381 0.18168,-0.13549 0.92207,-0.18661 1.70055,-0.11742 l 1.37876,0.12253 0.0653,9.8634 c 0.0359,5.42486 0.008,10.10116 -0.0632,10.39178 -0.11613,0.47781 -0.26857,0.52834 -1.59172,0.52771 h -1.46331 l -2.58327,-5.70161 -2.58327,-5.70164 -0.11742,5.64361 -0.11742,5.64362 -1.53644,0.0683 c -0.84504,0.0376 -1.61121,-0.006 -1.70261,-0.0979 z m 50.02152,0 c -0.0914,-0.0914 -0.16617,-4.79845 -0.16617,-10.46014 v -10.29393 h 1.76376 1.76377 l -0.0611,10.39177 -0.0612,10.3918 -1.53643,0.0684 c -0.84504,0.0376 -1.61122,-0.006 -1.70262,-0.0978 z m 41.8299,-2.49504 c -0.055,-1.4531 -0.0947,-6.12939 -0.0883,-10.39181 l 0.0116,-7.7498 1.70259,-0.069 1.70262,-0.069 v 4.23746 4.23747 h 2.46587 2.46583 v -4.23747 -4.23746 l 1.70262,0.069 1.7026,0.069 v 10.33306 10.33309 h -1.64389 -1.6439 l -0.0639,-4.4033 -0.0639,-4.4033 h -2.31815 c -1.77699,0 -2.34775,0.0772 -2.44504,0.33078 -0.0698,0.18193 -0.13224,2.09146 -0.13872,4.24339 -0.007,2.15194 -0.0726,4.01098 -0.1469,4.13126 -0.0743,0.12022 -0.80251,0.2186 -1.61819,0.2186 h -1.48304 z m 28.38815,2.49504 c -0.0914,-0.0914 -0.16618,-3.99457 -0.16618,-8.6737 0,-9.70314 0.24521,-8.79258 -2.36763,-8.79258 h -1.6247 v -1.64801 -1.64798 l 5.81237,0.0628 5.81237,0.0628 -0.0849,1.52646 c -0.0467,0.83958 -0.20519,1.60205 -0.35227,1.69439 -0.14705,0.0924 -1.03227,0.10338 -1.96712,0.0246 l -1.69971,-0.14343 -0.0616,8.78213 -0.0616,8.7821 -1.53644,0.0683 c -0.84505,0.0376 -1.6112,-0.006 -1.70262,-0.0978 z M 383.2968,394.613 c 0,-0.24789 0.62257,-3.66067 1.38348,-7.58396 0.76092,-3.92335 1.62102,-8.42791 1.91138,-10.01017 l 0.52784,-2.87681 h 2.27076 2.27079 l 1.00422,5.46007 c 2.01092,10.93343 2.60853,14.34402 2.60853,14.88699 0,0.52877 -0.074,0.55394 -1.62809,0.55394 -1.76172,0 -1.68105,0.0638 -2.01498,-1.59372 l -0.1555,-0.77176 -2.15175,0.0672 -2.15178,0.0673 -0.25394,1.0568 -0.25395,1.05677 -1.68352,0.069 c -1.5272,0.0626 -1.68349,0.0272 -1.68349,-0.38164 z m 7.51499,-5.71444 c 0,-0.51303 -1.06196,-6.85848 -1.32982,-7.94607 -0.0963,-0.39077 -0.35801,0.63637 -0.78285,3.07178 -0.351,2.0124 -0.71097,4.04672 -0.79992,4.52075 l -0.16166,0.8618 h 1.53712 c 1.41947,0 1.53713,-0.0389 1.53713,-0.50826 z m 44.26093,5.85094 c -0.0603,-0.16145 -0.13626,-4.098 -0.16878,-8.74789 l -0.0591,-8.45434 -1.64391,-0.0445 c -0.90413,-0.0246 -1.77599,-0.0509 -1.93746,-0.0587 -0.20553,-0.01 -0.29356,-0.50713 -0.29356,-1.65812 v -1.64388 h 5.87108 5.87108 v 1.64388 1.64391 h -1.99618 -1.99615 v 8.43513 c 0,4.63933 -0.0641,8.60229 -0.14255,8.8066 -0.18296,0.47681 -3.32936,0.54676 -3.50446,0.0779 z m 20.24258,0.137 c -0.0861,-0.0861 -0.15658,-4.78882 -0.15658,-10.45051 v -10.29393 h 1.75247 1.75241 l 0.0676,7.92594 c 0.0372,4.35927 0.0344,9.062 -0.006,10.45051 l -0.0738,2.52455 h -1.58965 c -0.87431,0 -1.66012,-0.0704 -1.74619,-0.15656 z m 41.99194,-0.12618 c -0.0642,-0.1674 -0.0892,-4.84857 -0.0555,-10.40259 l 0.0613,-10.09825 1.54578,-0.0685 1.5458,-0.0685 0.67183,1.59499 c 0.36949,0.87728 1.54699,3.5501 2.61668,5.93963 l 1.94484,4.34459 0.0647,-5.87108 0.0647,-5.87105 1.70506,-0.0691 1.70508,-0.0691 -0.0612,10.40214 -0.0611,10.40212 -1.47563,0.0702 -1.47567,0.0701 -0.55176,-1.24434 c -0.30347,-0.68437 -1.07042,-2.35397 -1.70431,-3.71019 -0.63392,-1.35621 -1.57096,-3.38453 -2.08235,-4.50734 l -0.9298,-2.0415 -0.11742,5.68156 -0.11742,5.68155 -1.5884,0.0695 c -1.13642,0.0497 -1.62166,-0.0172 -1.70519,-0.23485 z M 133.6564,387.46939 c -1.36504,-0.92904 -1.75893,-1.67844 -1.75893,-3.34651 0,-1.66806 0.39389,-2.41747 1.75893,-3.34653 0.91864,-0.62521 2.50324,-0.70453 3.52456,-0.17637 2.57557,1.33189 2.72277,5.23042 0.2593,6.8675 -1.08106,0.71842 -2.72985,0.71924 -3.78386,0.003 z m 214.20185,0.0394 c -1.55769,-0.94959 -2.30384,-2.48902 -1.99758,-4.12137 0.17864,-0.95226 1.24396,-2.28777 2.2329,-2.79916 1.65727,-0.85698 3.94686,-0.0235 4.84978,1.76533 0.67228,1.33197 0.6677,2.2533 -0.0177,3.5524 -1.00409,1.90334 -3.35491,2.64687 -5.06748,1.6028 z m -287.908149,-29.73354 -0.523044,-0.42444 0.007,-19.23449 c 0.0064,-17.63599 0.03957,-19.27056 0.399349,-19.6681 0.367673,-0.40629 0.918922,-0.43328 8.751626,-0.42844 7.6401,0.005 8.440049,0.0426 9.298609,0.44072 0.516654,0.23953 1.955236,1.4261 3.196846,2.63681 1.925857,1.87793 2.296711,2.36318 2.524562,3.30335 0.182626,0.75359 0.267083,5.10715 0.267083,13.76749 0,10.78415 -0.05355,12.81806 -0.360513,13.69303 -0.461624,1.3158 -4.006831,4.97787 -5.510559,5.69217 -1.006771,0.47823 -1.446604,0.50541 -9.29233,0.57417 -7.656124,0.0671 -8.272339,0.0424 -8.758587,-0.35227 z m 15.05667,-8.22896 c 0.38036,-0.34277 0.410975,-1.19533 0.410975,-11.44413 0,-8.52191 -0.06803,-11.16676 -0.295233,-11.47749 -0.260366,-0.35608 -0.711041,-0.39603 -3.816197,-0.33843 l -3.520963,0.0653 -0.0651,11.27247 c -0.03581,6.19984 -0.0082,11.50691 0.06132,11.79343 0.12024,0.49548 0.261202,0.52477 2.883214,0.59896 3.220141,0.0911 3.787368,0.0297 4.341984,-0.47011 z m 19.015821,8.2609 -0.521941,-0.3656 v -19.32482 c 0,-18.42334 0.02003,-19.34295 0.429466,-19.71347 0.356624,-0.32277 0.987761,-0.38868 3.721087,-0.38868 3.047926,0 3.324746,0.0366 3.738996,0.49427 0.43111,0.47628 0.44966,1.18915 0.51013,19.60536 0.062,18.89467 0.0574,19.11641 -0.41098,19.58478 -0.42923,0.42923 -0.77764,0.47373 -3.709273,0.47373 -2.548337,0 -3.346402,-0.0777 -3.757485,-0.36557 z m 23.627938,-0.0516 c -1.43926,-0.67678 -4.87729,-4.00888 -5.50617,-5.33651 l -0.55622,-1.17422 -0.001,-13.03377 c -7.9e-4,-8.66347 0.0847,-13.34876 0.25454,-13.97315 0.19665,-0.72292 0.77448,-1.43992 2.50763,-3.11158 3.29753,-3.18056 3.0887,-3.11375 9.69634,-3.10192 6.46675,0.0114 6.0215,-0.12682 9.07741,2.82117 2.60675,2.51468 2.88414,3.07237 2.88414,5.79855 0,2.9644 -0.0427,2.99517 -4.15454,2.99517 -3.04427,0 -3.18373,-0.0214 -3.61568,-0.55444 -0.26483,-0.32681 -0.44928,-0.91755 -0.44928,-1.43899 0,-1.35564 -0.2708,-1.45417 -3.91945,-1.42615 -2.55278,0.0196 -3.3121,0.1 -3.59239,0.38034 -0.30694,0.30699 -0.3554,1.81932 -0.3554,11.09106 0,5.90458 0.0767,11.0081 0.1705,11.34116 0.25543,0.90717 1.09627,1.15617 3.8916,1.15231 3.20832,-0.004 3.6422,-0.20182 3.81953,-1.73778 0.20844,-1.80539 0.6288,-2.01626 4.0194,-2.01626 2.6881,0 3.59335,0.18042 4.00599,0.79841 0.0949,0.1421 0.17415,1.18729 0.17613,2.32261 0.005,2.66052 -0.28999,3.23477 -2.99973,5.84695 -2.81257,2.71135 -3.03596,2.77612 -9.54468,2.76802 -4.18524,-0.005 -5.08048,-0.0686 -5.80868,-0.41098 z m 47.00752,-0.0525 c -0.46203,-0.46205 -0.46968,-0.7828 -0.46968,-19.6904 0,-18.32248 0.0201,-19.23891 0.42947,-19.60938 0.65403,-0.5919 7.04831,-0.57351 7.75745,0.0222 0.26903,0.22604 1.88263,3.10579 3.58579,6.39948 1.70315,3.29366 3.13387,6.03358 3.17936,6.08875 0.17223,0.20878 0.83872,-0.95978 3.47276,-6.08875 1.49247,-2.90618 2.92283,-5.62742 3.17855,-6.04721 l 0.46494,-0.76325 3.58481,0.003 c 1.97165,0.003 3.70108,0.0812 3.84321,0.17614 0.77439,0.51707 0.79841,1.11937 0.79494,19.94262 -0.003,14.6295 -0.0686,18.87305 -0.30018,19.33125 -0.29346,0.58071 -0.33395,0.58783 -3.70096,0.6518 -2.67521,0.0508 -3.50364,-0.008 -3.86831,-0.2745 -0.44829,-0.32766 -0.46799,-0.7279 -0.58145,-11.80682 l -0.11742,-11.46765 -2.86966,5.77765 c -1.57831,3.17773 -3.02633,5.90767 -3.21782,6.06661 -0.82247,0.68262 -1.25777,0.0811 -4.24859,-5.87097 -1.61838,-3.22064 -2.99895,-5.85579 -3.06794,-5.85579 -0.069,0 -0.1134,3.72518 -0.0987,8.27821 0.0462,14.28101 0.0426,14.42463 -0.36981,14.83704 -0.30016,0.30014 -0.97953,0.36904 -3.64006,0.36904 -2.95791,0 -3.31599,-0.045 -3.74072,-0.46969 z m 40.40832,0.0587 -0.5064,-0.41098 0.007,-19.23449 c 0.006,-17.63599 0.0396,-19.27056 0.39935,-19.6681 0.36988,-0.4087 0.96988,-0.4336 10.45425,-0.4336 9.7487,0 10.07645,0.0146 10.53153,0.46969 0.42067,0.42066 0.46968,0.7828 0.46968,3.47038 0,4.39449 0.58152,4.04458 -6.72179,4.04458 -3.68038,0 -6.16577,0.0938 -6.44486,0.24313 -0.41652,0.22291 -0.45423,0.52141 -0.45423,3.59518 0,2.52513 0.0823,3.46451 0.33347,3.80794 0.31408,0.42934 0.6004,0.45117 4.92081,0.37558 l 4.58732,-0.0803 0.59801,0.59799 c 0.57874,0.57875 0.598,0.69521 0.598,3.61674 0,2.23433 -0.0865,3.13722 -0.33289,3.47462 -0.30705,0.42045 -0.73121,0.46495 -5.46009,0.57327 l -5.12721,0.11742 -0.065,3.45768 c -0.0592,3.15188 -0.0249,3.49777 0.38801,3.91065 0.42187,0.42188 0.86084,0.45498 6.39383,0.48194 5.13423,0.0249 5.99829,0.0809 6.36373,0.41161 0.36701,0.33213 0.42285,0.79664 0.42285,3.51666 0,2.82088 -0.0469,3.1809 -0.46968,3.60368 -0.45492,0.45492 -0.78283,0.46968 -10.42449,0.46968 -9.1313,0 -9.9967,-0.034 -10.4612,-0.41097 z m 35.77121,-0.17505 c -1.72809,-0.86114 -5.36243,-4.63685 -5.71166,-5.93386 -0.19015,-0.70618 -0.24851,-4.8427 -0.20035,-14.20562 0.0674,-13.10531 0.072,-13.21577 0.57971,-14.03212 0.70354,-1.13107 4.56774,-4.63455 5.57675,-5.05611 1.21007,-0.50562 11.05574,-0.49757 12.27059,0.0101 0.94289,0.39396 5.09738,4.33609 5.61589,5.32884 0.21657,0.41465 0.33122,1.39792 0.33122,2.84046 0,3.06758 -0.043,3.10099 -3.99108,3.10099 -3.48839,0 -3.86789,-0.17576 -4.12824,-1.91177 -0.23428,-1.56228 -0.62106,-1.72828 -4.02734,-1.72828 -2.57017,0 -2.93429,0.051 -3.35297,0.46968 -0.45649,0.45649 -0.46969,0.7828 -0.46969,11.60767 v 11.13798 l 0.61879,0.48675 c 0.54977,0.43247 0.94066,0.48673 3.50559,0.48673 2.83897,0 2.89489,-0.0103 3.37355,-0.61878 0.2734,-0.34758 0.48673,-0.96515 0.48673,-1.40906 0,-1.27212 0.64977,-1.72453 2.52456,-1.75768 2.91353,-0.0515 4.39915,0.0642 4.89554,0.38142 0.41654,0.2662 0.51513,0.63336 0.64126,2.38773 0.20542,2.85713 -0.25953,3.7954 -3.16362,6.38458 -2.85052,2.54143 -3.11883,2.61644 -9.35628,2.61644 -4.6927,0 -4.87945,-0.018 -6.01895,-0.58602 z m 27.51695,0.0641 c -0.32362,-0.46199 -0.3656,-2.70888 -0.3656,-19.55713 0,-16.84824 0.042,-19.09513 0.3656,-19.55712 0.34869,-0.49784 0.52009,-0.52195 3.7126,-0.52195 2.51865,0 3.45983,0.0824 3.80289,0.33311 0.43174,0.31549 0.45945,0.72115 0.52435,7.67885 0.045,4.81952 0.15578,7.45093 0.32231,7.65154 0.3451,0.41584 6.7813,0.4373 7.19461,0.0241 0.20714,-0.20714 0.2818,-2.2203 0.2818,-7.596 0,-6.78762 0.0309,-7.34219 0.42948,-7.70284 0.35708,-0.32319 0.9903,-0.38867 3.75748,-0.38867 3.0149,0 3.37222,0.0442 3.79769,0.46969 0.46202,0.46201 0.46969,0.78279 0.46969,19.60938 0,18.82658 -0.008,19.14736 -0.46969,19.60938 -0.426,0.42603 -0.78279,0.46969 -3.83849,0.46969 -2.9654,0 -3.41538,-0.0514 -3.75748,-0.42947 -0.34383,-0.37995 -0.3891,-1.26688 -0.39227,-7.6911 -0.003,-3.99391 -0.0892,-7.39658 -0.19392,-7.56155 -0.14396,-0.22688 -1.07209,-0.28403 -3.81259,-0.23485 l -3.62228,0.0651 -0.11742,7.53797 c -0.0921,5.90939 -0.18706,7.6218 -0.43974,7.92597 -0.27313,0.32877 -0.85333,0.38796 -3.80288,0.38796 -3.3305,0 -3.49634,-0.0225 -3.84614,-0.52195 z m 32.51607,0.1741 c -0.3779,-0.45538 -0.2622,-1.26527 0.88966,-6.22777 0.5247,-2.26036 2.38541,-10.46233 4.13499,-18.22659 1.74958,-7.7643 3.24861,-14.29292 3.33116,-14.50808 0.27231,-0.70961 0.96787,-0.84786 4.26566,-0.84786 3.09174,0 3.28861,0.028 3.76508,0.53518 0.40243,0.42836 1.32704,4.09591 4.63277,18.37647 2.2715,9.81268 4.24786,18.3415 4.3919,18.95293 0.19479,0.82679 0.19291,1.26309 -0.007,1.70259 l -0.26924,0.59097 h -3.52226 c -3.99384,0 -3.92296,0.0335 -4.46734,-2.11359 -0.68143,-2.68772 -0.49884,-2.58406 -4.54263,-2.57966 -1.83134,0.003 -3.45815,0.0852 -3.6151,0.18491 -0.15693,0.0997 -0.45461,0.91713 -0.66149,1.81642 -0.64008,2.78278 -0.48657,2.69192 -4.54861,2.69192 -2.79469,0 -3.54589,-0.0692 -3.77717,-0.34784 z m 14.46189,-13.33175 c -0.25453,-1.64174 -1.86373,-8.1594 -1.98467,-8.03844 -0.19743,0.19744 -1.88486,8.65712 -1.76538,8.85045 0.0633,0.10234 0.96769,0.18605 2.00988,0.18605 h 1.8949 z m 19.58266,13.20588 c -0.4684,-0.46839 -0.473,-0.68995 -0.41098,-19.74577 0.0611,-18.76819 0.0747,-19.2808 0.51858,-19.60536 0.34277,-0.25061 1.2794,-0.3333 3.77526,-0.3333 3.13981,0 3.34608,0.0286 3.81209,0.5284 0.4753,0.50975 2.16295,4.50221 6.07214,14.36479 l 1.85399,4.67749 0.11742,-9.39726 c 0.0935,-7.48697 0.18293,-9.47613 0.43971,-9.78535 0.27226,-0.32779 0.84465,-0.38807 3.68546,-0.38807 3.20918,0 3.37989,0.0238 3.72875,0.52195 0.32363,0.46204 0.36557,2.7215 0.36557,19.6904 0,18.27186 -0.0198,19.18663 -0.42944,19.55712 -0.35812,0.32409 -0.99595,0.38867 -3.83855,0.38867 -3.06721,0 -3.45006,-0.0453 -3.81839,-0.45235 -0.22516,-0.24879 -1.8624,-3.97399 -3.63836,-8.27821 -1.77594,-4.30424 -3.44858,-8.30143 -3.71698,-8.88267 l -0.48802,-1.05677 -0.0199,8.64589 c -0.0196,8.5601 -0.0857,9.35527 -0.81819,9.84438 -0.14211,0.0949 -1.71149,0.17415 -3.48748,0.17614 -2.92782,0.003 -3.27329,-0.0406 -3.70279,-0.47012 z m 34.67975,0.0442 c -0.35501,-0.39227 -0.38867,-2.09745 -0.38867,-19.69042 0,-18.36142 0.0198,-19.27908 0.42945,-19.64957 0.35557,-0.32176 0.98213,-0.38868 3.64008,-0.38868 2.89748,0 3.25641,0.0458 3.68028,0.46969 0.46204,0.46202 0.46968,0.7828 0.46968,19.6904 0,18.32247 -0.0198,19.23889 -0.42944,19.60938 -0.35663,0.32274 -0.98777,0.38867 -3.72113,0.38867 -2.8906,0 -3.33893,-0.0523 -3.68025,-0.42947 z m 23.86793,0.0502 c -1.19067,-0.43143 -5.22785,-4.15665 -5.79114,-5.34373 -0.33542,-0.70684 -0.38058,-2.36255 -0.38849,-14.24014 -0.0106,-15.71927 -0.25601,-14.28009 2.96344,-17.37088 2.94259,-2.82503 2.9052,-2.81379 9.37175,-2.81379 6.53021,0 6.38728,-0.0466 9.42541,3.07174 2.36892,2.43141 2.66544,3.04646 2.66769,5.53312 0.003,2.79988 -0.47853,3.12341 -4.64754,3.12566 -2.25478,0.003 -2.45665,-0.0376 -2.99424,-0.5751 -0.38285,-0.38291 -0.57642,-0.84095 -0.57642,-1.36419 0,-1.54247 -0.30744,-1.69043 -3.69017,-1.77589 -2.73383,-0.0691 -3.07988,-0.0316 -3.60079,0.39008 l -0.57626,0.46651 -0.0657,10.75815 c -0.0453,7.41605 0.0143,10.95142 0.19201,11.38031 0.38733,0.93506 1.1561,1.15276 4.07099,1.15276 2.46501,0 2.68412,-0.0377 3.15933,-0.54353 0.30676,-0.32653 0.51062,-0.84646 0.51062,-1.30231 0,-0.49247 0.2023,-0.96107 0.57642,-1.33522 0.551,-0.55097 0.70705,-0.57642 3.53333,-0.57642 2.82628,0 2.98236,0.0254 3.53333,0.57642 0.51861,0.51864 0.57642,0.77026 0.57642,2.50915 0,2.51489 -0.41953,3.37304 -2.76172,5.64936 -2.96143,2.87813 -2.97053,2.88104 -9.21526,2.93804 -4.23971,0.0387 -5.47944,-0.0225 -6.27298,-0.3101 z m 25.10737,0.0975 c -0.41846,-0.41847 -0.36115,-0.92642 0.55251,-4.8981 0.69463,-3.01953 4.03436,-17.76008 6.94055,-30.63365 0.37909,-1.67912 0.88315,-3.31716 1.12019,-3.64005 0.41754,-0.56886 0.52888,-0.58923 3.57648,-0.65474 1.73003,-0.0372 3.38137,-0.009 3.66964,0.0621 0.76642,0.18973 1.08474,0.99483 2.04507,5.17207 0.47508,2.06661 1.11765,4.81428 1.42795,6.10592 0.31028,1.29162 1.42053,6.10005 2.46716,10.68533 1.04667,4.58531 2.37146,10.18633 2.94394,12.44669 1.16896,4.61518 1.18669,4.75377 0.67324,5.26719 -0.30094,0.30094 -0.98613,0.36904 -3.71261,0.36904 -2.32585,0 -3.46726,-0.0905 -3.74994,-0.29718 -0.22352,-0.16343 -0.60944,-1.08648 -0.85762,-2.05126 -0.24815,-0.96475 -0.63408,-1.88783 -0.8576,-2.05126 -0.28127,-0.20569 -1.40464,-0.29715 -3.64929,-0.29715 -3.83722,0 -3.94956,0.0605 -4.40004,2.36908 -0.45527,2.33309 -0.44503,2.32777 -4.46853,2.32777 -2.36188,0 -3.52755,-0.0883 -3.7211,-0.2818 z M 433.13848,345.358 c 0.0733,-0.0733 0.049,-0.46958 -0.0539,-0.88067 -0.10295,-0.41105 -0.5824,-2.43808 -1.06547,-4.50448 -0.64516,-2.75981 -0.92721,-3.62481 -1.0626,-3.25884 -0.15883,0.42942 -1.86533,8.35678 -1.86533,8.66531 0,0.15971 3.88675,0.13923 4.0473,-0.0214 z m 19.74525,12.63025 c -0.73303,-0.46606 -0.77796,-1.63319 -0.77796,-20.20985 0,-16.56289 0.0421,-18.78004 0.36558,-19.24182 0.34909,-0.4984 0.51861,-0.52195 3.7575,-0.52195 3.07877,0 3.43525,0.0433 3.86157,0.46969 0.46,0.45998 0.46969,0.7828 0.46969,15.61706 0,15.03143 0.004,15.1511 0.48879,15.63613 0.465,0.46501 0.71318,0.48678 5.10783,0.44808 6.84639,-0.0603 6.78299,-0.0646 7.33761,0.49008 0.4539,0.45387 0.48226,0.70652 0.41098,3.65948 -0.068,2.81784 -0.12748,3.20911 -0.53242,3.50478 -0.37648,0.27485 -2.17646,0.33221 -10.33309,0.32925 -5.43248,-0.003 -10.00273,-0.0834 -10.15608,-0.18093 z M 246.4565,294.55595 c -0.67019,-0.0844 -1.30427,-0.23956 -1.40906,-0.34489 -0.10481,-0.1053 -0.19055,-5.93468 -0.19055,-12.95415 v -12.76266 l -0.70453,-0.73657 c -0.38749,-0.4051 -1.47739,-1.37618 -2.42203,-2.15792 l -1.71752,-1.42137 1.65435,2.51011 c 2.12007,3.21672 2.36778,4.06617 2.36778,8.1199 0,4.93702 -1.35652,17.83133 -1.93893,18.43027 -0.14795,0.15213 -0.1701,-3.82776 -0.0629,-11.30189 0.15237,-10.62434 0.13365,-11.59939 -0.23667,-12.32924 -0.22115,-0.4359 -1.06079,-1.90217 -1.86585,-3.2584 -1.66875,-2.81117 -6.39074,-11.89277 -8.36432,-16.08673 -1.41907,-3.0156 -2.59164,-5.89807 -3.65923,-8.99548 -0.41198,-1.19527 -0.7898,-1.92453 -0.99709,-1.9246 -0.72835,-2.3e-4 -8.43946,1.71482 -10.21912,2.27289 -2.54739,0.79882 -6.69002,2.78495 -8.85269,4.2443 -2.0203,1.36328 -4.14469,3.26168 -7.83621,7.00255 -4.67934,4.74192 -8.10716,6.6958 -13.56227,7.73062 -2.40249,0.45574 -7.27733,0.45744 -9.88078,0.003 -3.75429,-0.65469 -6.11782,-1.89396 -5.56877,-2.91987 0.26679,-0.49849 4.00417,-3.46714 11.69894,-9.29258 5.57402,-4.21991 5.95177,-4.65225 5.46996,-6.26038 -0.40952,-1.36684 -2.59161,-5.68483 -4.06041,-8.03486 -2.50594,-4.00942 -3.99867,-5.54616 -5.38919,-5.54811 -1.26742,-0.002 -1.76246,0.28323 -12.98741,7.47714 -2.45019,1.57028 -4.64059,2.85506 -4.86758,2.85506 -1.20557,0 -1.53036,-2.88348 -0.64808,-5.75365 1.23473,-4.01676 3.8245,-7.97347 7.78682,-11.89688 3.88924,-3.85104 7.25457,-6.12174 10.2161,-6.89312 2.70546,-0.70468 4.57335,-0.40228 9.33157,1.51074 3.90222,1.56886 9.12882,2.76901 15.47404,3.5532 3.42441,0.42321 11.02089,0.1691 14.60028,-0.4884 1.54996,-0.28471 2.85407,-0.55016 2.89798,-0.58988 0.0439,-0.0397 0.27148,-1.0616 0.50569,-2.27084 1.49142,-7.70087 5.07218,-12.57411 10.22543,-13.91636 0.76014,-0.19799 1.76453,-0.35999 2.23199,-0.35999 0.79557,0 0.8862,-0.0784 1.41842,-1.2266 0.78032,-1.6835 3.05857,-4.71776 4.77741,-6.36273 1.67373,-1.60177 4.09923,-2.87874 6.14638,-3.2359 1.75134,-0.30555 3.59911,-0.0128 5.29491,0.83899 0.64882,0.32589 1.26172,0.59252 1.362,0.59252 0.10025,0 0.57754,-0.5953 1.06064,-1.3229 2.60575,-3.92453 6.75768,-6.37364 11.19616,-6.60432 3.20575,-0.16661 5.63602,0.50237 8.49895,2.33951 l 1.13395,0.72765 1.84102,-0.98094 c 2.67042,-1.42287 4.25387,-1.90881 6.21986,-1.90881 5.07428,0 9.87888,3.63802 11.16528,8.45434 0.15523,0.58124 0.36814,2.05416 0.47313,3.27316 0.22077,2.56356 0.15414,2.4795 3.19611,4.03155 2.27269,1.15955 1.81986,1.18474 9.24274,-0.51403 16.6787,-3.81703 20.30878,-5.64536 26.0722,-13.13144 2.32394,-3.01856 4.57931,-4.82338 7.58791,-6.07209 5.51164,-2.2876 13.30187,-1.85833 19.29696,1.06334 1.85497,0.90401 4.48516,2.69228 4.41698,3.00311 -0.0246,0.11287 -2.5082,1.07045 -5.51878,2.12797 -11.00641,3.86617 -11.87852,4.26297 -12.6369,5.74952 -0.6254,1.22585 -0.59163,2.49759 0.1437,5.41357 1.19919,4.75544 3.17195,9.14002 4.39753,9.77379 0.63794,0.32989 0.87503,0.32571 2.60128,-0.0458 3.992,-0.85917 10.83773,-3.33088 14.74999,-5.32562 1.25547,-0.64014 2.39154,-1.09662 2.52455,-1.01442 0.31623,0.19544 0.3089,2.25407 -0.0143,4.01223 -0.90414,4.91836 -4.79351,10.48567 -9.57845,13.71078 -2.04192,1.37627 -5.39504,2.93046 -7.66003,3.55042 -3.59963,0.98529 -6.20805,0.66783 -11.03879,-1.34347 -7.30784,-3.0427 -8.06203,-3.23497 -12.56408,-3.20312 -3.8296,0.0271 -6.71285,0.42922 -12.97839,1.81011 -2.61372,0.57605 -6.12609,1.33105 -7.80521,1.67777 -1.67913,0.34671 -3.06623,0.64394 -3.08245,0.66051 -0.0161,0.0166 0.11168,0.82271 0.28424,1.79144 0.3773,2.11813 0.41886,5.88726 0.0881,7.98465 -0.29281,1.85649 -1.42944,5.37837 -2.49002,7.71531 -1.42481,3.13952 -5.41089,9.53185 -9.90632,15.88641 -1.52976,2.16241 -3.69437,6.39509 -4.31437,8.43634 -0.45971,1.51347 -0.48361,1.96263 -0.33772,6.34222 0.0864,2.59236 0.37235,8.25365 0.63551,12.58062 0.26318,4.327 0.49919,8.607 0.52448,9.51114 l 0.046,1.64393 -0.89861,0.0739 c -0.52454,0.0432 -1.12474,-0.0742 -1.4419,-0.28201 -0.58946,-0.38627 -2.13376,-3.89409 -6.6802,-15.17418 -2.92851,-7.26596 -3.91763,-9.38064 -4.94334,-10.56859 -0.69768,-0.80807 -0.71522,-0.81373 -1.09006,-0.35158 -1.49172,1.83899 -1.75543,3.58354 -3.54195,23.43314 -0.15422,1.71355 -0.42574,2.2126 -0.63582,1.16866 -0.0717,-0.35628 -0.60632,-5.56193 -1.18803,-11.56803 -0.58169,-6.00612 -1.10609,-11.40714 -1.16533,-12.00229 l -0.10769,-1.08209 2.62697,-0.77206 c 6.63885,-1.95109 11.20479,-4.07759 17.42181,-8.11383 l 0.70427,-0.45723 -0.85149,1.17422 c -0.46828,0.64581 -1.15509,1.75545 -1.52622,2.46585 -0.66696,1.27678 -0.67432,1.33486 -0.63846,5.04913 0.0206,2.15011 0.23979,5.36485 0.51202,7.51496 l 0.47572,3.75748 -0.039,-7.28012 -0.0391,-7.28013 0.72245,-1.52648 c 0.39735,-0.83956 1.36744,-2.33637 2.15574,-3.32624 l 1.4333,-1.79976 -2.62871,1.2584 c -4.07411,1.95034 -6.00035,2.52926 -8.49977,2.55457 -3.65051,0.0369 -6.07314,-1.11788 -7.56732,-3.60726 -0.8061,-1.34297 -1.60898,-3.47749 -1.3903,-3.69618 0.0724,-0.0724 0.6623,0.44888 1.31085,1.15848 2.24782,2.45947 4.49193,2.84988 7.6922,1.33824 1.31453,-0.62092 2.11995,-1.28256 4.53401,-3.7247 3.36418,-3.40328 5.72381,-6.35462 9.21533,-11.52625 4.02423,-5.96066 5.96305,-9.52786 6.76481,-12.44668 0.15968,-0.58124 0.35515,-2.2721 0.43445,-3.75748 l 0.14412,-2.7007 1.24105,3.05296 1.24103,3.05296 -0.12509,-2.58328 c -0.19495,-4.02503 -1.31898,-7.87457 -4.10753,-14.06736 l -0.7298,-1.62069 -0.61814,1.19963 c -0.69456,1.34799 -2.52466,3.53157 -2.76498,3.29906 -0.0863,-0.0835 -0.0488,-0.77038 0.0832,-1.52648 0.43767,-2.50613 0.55565,-5.76633 0.26649,-7.36322 -0.38516,-2.12684 -1.16798,-3.37061 -2.66004,-4.22633 -1.67696,-0.96176 -1.84127,-0.88199 -0.54095,0.2626 1.77867,1.56565 2.13683,2.46618 2.13683,5.37278 0,2.1672 -0.0693,2.59385 -0.57208,3.52265 l -0.57208,1.05679 -0.30358,-2.21248 c -0.52168,-3.80154 -1.49636,-6.41466 -2.97183,-7.96723 -1.16142,-1.22208 -1.49678,-1.26934 -4.20627,-0.59269 -1.32646,0.33127 -2.50206,0.68763 -2.61239,0.7919 -0.11036,0.10426 -0.0444,0.80734 0.14653,1.56239 0.19092,0.75506 0.30869,1.41581 0.26167,1.46834 -0.047,0.0525 -0.35306,-0.19319 -0.68008,-0.54606 -0.6749,-0.72821 -3.35733,-2.03089 -5.28117,-2.5647 -0.71038,-0.19712 -2.42289,-0.48599 -3.80552,-0.64194 -2.02102,-0.22794 -2.65655,-0.22445 -3.24147,0.0178 -1.90579,0.7894 -2.20763,4.17125 -0.65127,7.29658 1.59898,3.21085 4.62426,6.27776 7.69398,7.79984 1.35279,0.67077 1.75233,0.7566 3.59029,0.77126 l 2.06811,0.0165 0.40201,0.78876 c 0.68009,1.33422 1.48288,1.74846 3.57243,1.84336 2.21411,0.10054 3.76222,-0.3415 5.2959,-1.51218 0.5747,-0.43866 1.04487,-0.70867 1.04487,-0.60002 0,0.38373 -2.73556,2.80065 -3.76336,3.32499 -0.95265,0.48602 -1.24756,0.51885 -3.44961,0.38412 l -2.40789,-0.14733 -0.1469,0.58533 c -0.0808,0.32193 -0.10774,1.36101 -0.0598,2.30907 0.0735,1.45588 0.19074,1.85969 0.75433,2.59863 1.51948,1.99214 3.53073,2.88324 7.04792,3.12267 2.03673,0.13865 2.06896,0.15005 1.40906,0.49805 -1.06613,0.56223 -3.21201,0.45659 -6.09229,-0.29994 -1.42936,-0.37543 -2.77839,-0.61372 -2.99778,-0.52952 -0.2194,0.0842 -0.51221,0.4464 -0.65064,0.80491 -0.6871,1.77923 0.83685,5.39184 3.14195,7.44813 1.60663,1.43324 1.55242,1.70161 -0.12001,0.59384 -2.57728,-1.7071 -4.5815,-5.17426 -5.09757,-8.81839 -0.20881,-1.47457 -0.84175,-2.67934 -1.19571,-2.27606 -0.0877,0.0999 -0.55861,1.31773 -1.04642,2.70624 -0.48781,1.3885 -0.95224,2.52417 -1.03204,2.52369 -0.0798,-5.3e-4 -0.51331,-0.71381 -0.9634,-1.58519 -1.67129,-3.23578 -3.17058,-4.13264 -4.51329,-2.69983 -1.66454,1.77624 -3.01035,6.85747 -3.62315,13.67961 l -0.17931,1.99616 -0.28006,-2.81812 c -0.28429,-2.86068 -0.96157,-6.77222 -1.27738,-7.37765 -0.33112,-0.63475 -0.97525,3.12339 -1.10347,6.43828 -0.11491,2.97028 0.23879,9.22146 0.57645,10.18826 0.0908,0.25992 0.0549,0.3056 -0.11383,0.14483 -0.13557,-0.12916 -0.88389,-2.66547 -1.66298,-5.63623 -1.88243,-7.17784 -3.48792,-11.87072 -3.84783,-11.24728 -0.20693,0.35844 -0.62402,2.43325 -1.12056,5.5738 -1.2216,7.7267 -2.80864,12.51193 -5.54646,16.72356 -1.89512,2.91529 -2.75015,3.67159 -1.24704,1.10304 3.65934,-6.25322 5.95263,-17.98066 4.38841,-22.44158 l -0.31375,-0.89475 -0.87505,0.84984 c -0.75656,0.73478 -1.91833,2.86188 -3.46329,6.34104 -0.30314,0.68266 -0.31859,0.64634 -0.49735,-1.17015 -0.23339,-2.37128 -1.02596,-5.05319 -1.49335,-5.05319 -0.37305,0 -3.84174,1.77035 -6.10126,3.11396 -0.77498,0.46083 -1.44802,0.79922 -1.49567,0.75196 -0.0476,-0.0473 0.34362,-0.58922 0.86941,-1.20436 0.52581,-0.61514 0.91709,-1.15737 0.86951,-1.20494 -0.12238,-0.12238 -10.56892,2.05627 -11.56345,2.41159 -0.32153,0.11487 0.40193,2.4019 2.04498,6.46488 3.06367,7.57582 5.73198,11.98781 9.83558,16.26287 1.08485,1.13019 1.91082,2.05488 1.83548,2.05488 -0.0753,0 -2.54184,-1.37061 -5.48116,-3.0458 -2.93932,-1.67519 -5.3823,-3.00771 -5.42884,-2.96117 -0.0465,0.0465 0.3706,0.86234 0.92697,1.81287 0.60914,1.04067 1.85246,2.57657 3.12517,3.86054 1.81743,1.83351 2.4531,2.30205 4.53656,3.34379 4.4115,2.20578 8.59287,3.16241 13.95732,3.19321 1.90515,0.0109 3.46392,0.0422 3.46395,0.0695 0,0.12589 -2.89197,0.88403 -7.51499,1.97006 -2.77702,0.65239 -5.1548,1.28905 -5.28396,1.41481 -0.14655,0.14266 -0.279,4.35282 -0.35227,11.19603 l -0.11742,10.9674 -0.70453,0.0308 c -0.38749,0.0169 -1.25286,-0.0382 -1.92303,-0.12258 z m -46.95497,-46.23099 c 2.14315,-4.23642 2.27603,-9.70163 0.37424,-15.39234 -2.62723,-7.86154 -9.56522,-14.97395 -16.30349,-16.71337 -4.86452,-1.25574 -10.07115,0.77022 -14.74829,5.73872 -2.39739,2.54673 -4.44738,5.47031 -6.04714,8.62406 -1.46111,2.88042 -1.51591,3.38033 -0.0985,0.89888 1.80364,-3.1577 3.61711,-5.50473 6.55917,-8.489 3.82374,-3.87859 6.44917,-5.45949 9.87156,-5.94417 7.06592,-1.00066 16.06111,6.18807 19.8158,15.8363 1.31648,3.3829 1.76909,5.62658 1.75284,8.68919 -0.015,2.81576 -0.43265,4.82288 -1.40156,6.73496 -0.31558,0.62275 -0.52093,1.13227 -0.45635,1.13227 0.0646,0 0.37136,-0.50197 0.68175,-1.1155 z m 14.56641,-8.87332 c 2.58964,-0.86655 7.4895,-2.11731 17.56759,-4.48438 3.19047,-0.74937 5.76573,-1.39762 5.72278,-1.44057 -0.0429,-0.043 -1.86075,0.25081 -4.03956,0.6528 -12.00705,2.21531 -19.04396,4.11909 -23.10118,6.24988 -2.44612,1.28466 -2.91292,1.83132 -0.68146,0.79805 1.11057,-0.51425 3.14988,-1.31335 4.53183,-1.77578 z m 6.13046,-4.78679 c 9.08325,-2.05417 10.69319,-2.43835 10.60167,-2.52987 -0.0457,-0.0457 -3.82366,0.61263 -8.39537,1.46306 -10.32574,1.92079 -12.15934,1.98966 -13.55043,0.5089 -1.29725,-1.38084 -1.64069,-4.28785 -0.69037,-5.84322 1.17506,-1.92317 2.245,-2.37283 9.68607,-4.07078 3.22909,-0.73683 5.92391,-1.39531 5.98849,-1.46328 0.14537,-0.15302 -0.2603,-0.086 -6.80922,1.12503 -5.82941,1.07797 -7.19408,1.49458 -8.54459,2.6085 -1.81736,1.49896 -2.33744,4.31319 -1.23002,6.65569 1.62342,3.434 3.56811,3.66627 12.94377,1.54597 z m 22.65993,-5.65449 c 1.18229,-0.60317 2.29409,-1.92577 2.48809,-2.9599 0.71026,-3.78601 -2.91858,-16.05556 -5.63926,-19.06702 -1.43367,-1.5869 -3.38298,-1.85227 -5.53637,-0.75369 -1.0373,0.5292 -1.22609,0.34435 -0.41023,-0.40166 0.85542,-0.78217 1.96139,-1.24125 3.04129,-1.26241 l 1.00975,-0.0198 -1.05679,-0.50625 c -1.64599,-0.7885 -4.81944,-0.72863 -6.64187,0.12532 -2.44807,1.14712 -4.48575,3.22204 -5.89464,6.00235 -0.89593,1.76799 -0.75157,1.80396 0.26598,0.0663 1.74188,-2.9746 4.40408,-5.32286 6.67881,-5.89124 1.51746,-0.37916 1.91385,-0.16697 0.77745,0.41615 -2.83233,1.45334 -5.68343,4.33047 -7.24584,7.31196 -0.81883,1.56255 -1.8995,4.46637 -1.72656,4.63932 0.0509,0.0509 0.42166,-0.43702 0.82397,-1.08421 0.43826,-0.70501 0.90078,-1.1767 1.15383,-1.1767 0.23228,0 1.00207,0.47556 1.71064,1.05679 1.38223,1.13386 1.94823,1.27923 2.61859,0.67256 0.347,-0.31402 0.44359,-0.32475 0.52865,-0.0587 0.0573,0.17904 0.28564,0.90676 0.50752,1.61716 0.90013,2.88189 3.05389,7.18327 4.59514,9.1771 1.91747,2.48055 5.3996,3.39864 7.95185,2.09659 z m 1.23182,-6.39456 c -0.30459,-1.1504 -2.73756,-7.50211 -4.63403,-12.0979 -0.62177,-1.50681 -1.05713,-2.90808 -1.01455,-3.26563 l 0.0746,-0.62631 0.72409,0.61159 c 1.03486,0.87408 2.02118,2.88243 3.13786,6.38937 1.05916,3.32639 2.19468,8.50769 2.07864,9.48482 -0.0594,0.50051 -0.12691,0.40923 -0.36657,-0.49594 z m 11.50066,4.75503 c 1.47512,-0.55192 2.44713,-1.46464 2.77417,-2.605 0.28957,-1.00962 0.28959,-8.05615 3e-5,-11.03077 -0.33578,-3.44964 -0.63361,-3.73309 -0.51809,-0.49308 0.10892,3.05471 -0.12068,6.84312 -0.41471,6.84312 -0.0998,0 -0.253,-0.92469 -0.34038,-2.05488 -0.7159,-9.25703 -2.30235,-15.70864 -4.61663,-18.77445 l -0.92089,-1.21994 0.68654,0.23933 c 1.42979,0.49843 3.27295,2.96955 4.26885,5.7232 0.56222,1.55454 0.55419,0.86763 -0.016,-1.36136 -0.88721,-3.46898 -2.30775,-5.50161 -4.55945,-6.52408 -1.42672,-0.64786 -3.66056,-0.59026 -5.43356,0.14011 -1.71135,0.70497 -1.70792,0.70473 -1.1519,0.0798 0.84496,-0.94974 2.17065,-1.36398 4.4397,-1.38728 l 2.11359,-0.0217 -0.93937,-0.35363 c -2.40905,-0.90691 -6.80192,0.25041 -7.68771,2.02536 -0.28857,0.57824 -0.79066,1.0104 -1.71973,1.48019 -0.72169,0.36493 -1.83285,1.20943 -2.46925,1.87665 -0.6364,0.66723 -1.1571,1.13455 -1.1571,1.03851 0,-0.096 0.35866,-0.88533 0.79701,-1.75396 1.77666,-3.52059 4.59074,-5.55417 8.71413,-6.29722 l 0.93937,-0.16927 -1.00761,-0.21411 c -1.26768,-0.26937 -2.7475,0.1858 -4.67251,1.43719 -1.80376,1.17257 -4.51079,4.06232 -5.55138,5.9261 -1.13145,2.02653 -1.22928,2.31742 -0.77942,2.31742 0.85464,0 2.99913,1.02367 4.01178,1.91504 2.3105,2.03379 5.71943,10.95708 7.0737,18.51629 0.21983,1.22705 0.59861,2.62576 0.84172,3.10823 1.0846,2.15243 4.06326,2.80337 7.295,1.59422 z m 11.57619,-3.78785 c 1.32043,-0.36123 2.98503,-2.12689 3.42058,-3.62829 0.18529,-0.63867 0.3274,-1.95382 0.31581,-2.92255 -0.022,-1.81849 -0.35634,-2.74447 -2.04912,-5.67204 -1.30548,-2.25774 -1.72659,-5.84052 -0.98142,-8.34979 0.38492,-1.29609 1.74144,-2.75537 2.81086,-3.02378 0.58383,-0.14652 0.59303,-0.1847 0.59303,-2.45652 0,-2.45903 -0.20468,-3.31359 -0.99594,-4.15829 l -0.49498,-0.5284 h 0.51887 c 0.72869,0 1.6311,0.64584 2.41554,1.72871 l 0.67008,0.92504 -0.003,-0.68106 c -0.003,-0.81414 -1.00473,-3.05269 -1.69722,-3.79179 -0.27181,-0.29011 -0.43606,-0.58563 -0.36497,-0.6567 0.15269,-0.15271 1.55205,1.16648 2.12799,2.00612 l 0.40275,0.5871 -0.13787,-0.70452 c -0.23104,-1.1805 -1.24643,-3.10239 -1.84696,-3.49587 -1.33347,-0.87372 -4.51498,-0.71644 -9.56317,0.47274 -2.75684,0.64942 -3.75004,1.1887 -5.79099,3.14438 -0.6906,0.66176 -1.30876,1.15011 -1.37365,1.08522 -0.25221,-0.25222 1.23913,-2.56134 2.28773,-3.54218 2.1879,-2.04654 5.32639,-3.15652 9.03076,-3.19391 1.4978,-0.0151 1.75972,-0.0665 1.29167,-0.25316 -1.90371,-0.75937 -5.08439,-0.39095 -7.73538,0.89601 -1.54254,0.74884 -4.38837,3.51314 -5.16654,5.01855 l -0.55372,1.07116 1.17046,1.45253 c 1.97367,2.44929 2.96647,4.91505 3.94226,9.7912 0.68297,3.41277 1.1956,7.50413 1.52691,12.18594 0.35079,4.95762 0.85681,5.91786 3.49263,6.62783 1.38679,0.37354 1.59483,0.37858 2.73627,0.0663 z m -51.9003,-0.91063 c 2.60488,-0.38328 6.95982,-1.22452 6.85934,-1.325 -0.0503,-0.0503 -1.50861,0.0897 -3.2406,0.31116 -2.28852,0.29265 -4.94596,0.40544 -9.72466,0.41273 -6.07745,0.009 -7.26007,-0.0691 -10.68535,-0.70813 -0.32291,-0.0602 -0.0124,0.10343 0.68994,0.36372 1.16459,0.43158 3.80777,0.99965 5.88566,1.26496 1.31251,0.16758 8.41522,-0.0545 10.21567,-0.31944 z m 9.44754,-0.14586 c -0.078,-0.078 -0.28059,-0.0864 -0.45013,-0.0185 -0.18733,0.075 -0.13169,0.13061 0.1419,0.14188 0.24754,0.0102 0.38627,-0.0453 0.30823,-0.12335 z m 88.29544,-5.14866 c 10.04229,-1.85641 11.13319,-2.01196 15.21646,-2.16957 2.98418,-0.11519 3.69583,-0.19568 2.81813,-0.31875 -2.48955,-0.34909 -7.50499,-0.21744 -10.39114,0.27275 -2.54209,0.43176 -14.08274,3.19369 -13.5967,3.254 0.11051,0.0137 2.7895,-0.45358 5.95325,-1.03843 z m 27.15155,-1.12027 c -3.67343,-3.86717 -5.85386,-7.9513 -6.92098,-12.96373 -0.45497,-2.13694 -0.39208,-7.14281 0.11801,-9.39371 0.97398,-4.29802 3.45556,-7.79652 6.70483,-9.45243 1.31186,-0.66855 1.41079,-0.76324 0.79764,-0.76324 -0.38499,0 -1.34268,0.32115 -2.1282,0.71368 -2.87708,1.43768 -5.55035,5.22071 -6.54868,9.26714 -0.65254,2.64486 -0.54856,7.59554 0.22048,10.49884 1.22169,4.61212 3.52489,8.48807 7.02075,11.81481 1.15162,1.09593 2.15471,1.99259 2.22906,1.99259 0.0743,0 -0.59746,-0.77128 -1.49291,-1.71395 z m -24.8702,-1.82187 c 2.6969,-0.5239 5.54812,-1.16523 6.33603,-1.42517 3.79415,-1.25174 4.98925,-3.45021 3.79735,-6.98555 -0.87109,-2.58386 -3.25419,-3.97878 -6.37008,-3.72867 -1.66285,0.13348 -13.21824,2.57564 -12.81808,2.70902 0.14467,0.0482 3.19045,-0.40534 6.76838,-1.00792 6.92843,-1.16684 7.80965,-1.19725 9.51307,-0.32824 2.23522,1.14033 3.25757,5.04108 1.80517,6.88753 -0.90773,1.15399 -2.96841,1.90373 -10.39148,3.78078 -2.21263,0.5595 -3.9152,1.02481 -3.78344,1.03402 0.13176,0.009 2.44613,-0.4119 5.14308,-0.9358 z m 14.82222,-9.34825 c -0.6105,-2.35601 -1.0623,-5.87885 -1.06378,-8.29462 l -0.003,-2.27383 -1.23293,0.83157 c -3.68689,2.48672 -7.03101,3.72353 -17.08483,6.31874 -8.07332,2.08398 -8.19148,2.18327 -1.05678,0.88784 5.13001,-0.93145 8.18235,-1.66389 10.68533,-2.56405 2.07352,-0.74571 5.11588,-2.23784 6.50052,-3.18819 0.53991,-0.37058 1.07953,-0.67378 1.19915,-0.67378 0.11959,0 0.28863,0.85347 0.37565,1.89659 0.17878,2.14398 0.62193,4.40875 1.35901,6.94547 0.59976,2.06408 0.84828,2.15281 0.32001,0.11426 z m -24.49073,0.047 c -0.16145,-0.0652 -0.42566,-0.0652 -0.58711,0 -0.16145,0.0651 -0.0294,0.11845 0.29355,0.11845 0.3229,0 0.45501,-0.0533 0.29356,-0.11845 z m -21.78169,-6.30095 c 2.19577,-0.31869 4.38864,-0.58154 4.87299,-0.58412 l 0.88066,-0.005 -0.003,-1.58519 c 0,-0.87185 -0.11216,-1.98437 -0.24763,-2.47227 -0.32059,-1.15442 -1.50061,-2.48167 -2.68456,-3.01953 l -0.94139,-0.42766 0.77078,-0.005 c 1.61481,-0.0108 3.79601,1.49623 5.02388,3.47112 0.67638,1.08786 0.81902,0.75073 0.21249,-0.5022 -0.5888,-1.2163 -2.58503,-3.18598 -3.91827,-3.86614 -1.22277,-0.62382 -3.36441,-1.0063 -4.74167,-0.84682 -1.03209,0.1195 -1.07474,0.10368 -0.64884,-0.24082 0.81777,-0.66149 3.59389,-0.55005 5.76746,0.23151 1.67701,0.60301 1.40394,0.20452 -0.46968,-0.6854 -0.87919,-0.41759 -1.47119,-0.49962 -3.52264,-0.48809 -2.19596,0.0123 -2.75217,0.10909 -5.08188,0.88403 -1.4388,0.4786 -2.7541,1.03655 -2.92285,1.23989 -0.25411,0.30617 -0.21534,1.06238 0.22543,4.39994 0.7354,5.56871 0.53575,5.08757 2.10981,5.08402 0.72871,-0.002 3.12145,-0.26373 5.31722,-0.58242 z m -111.0807,85.38458 c -1.80829,-0.48681 -3.89442,-1.06315 -4.63585,-1.2808 l -1.34804,-0.39576 0.14911,-2.77315 0.14911,-2.77313 -2.29395,-1.22568 c -1.26167,-0.67413 -3.07559,-1.75313 -4.03093,-2.39779 l -1.73697,-1.1721 -2.25061,1.53675 c -1.23782,0.84521 -2.33265,1.53675 -2.43294,1.53675 -0.31376,0 -7.75391,-7.31072 -7.75391,-7.61904 0,-0.1609 0.68736,-1.25341 1.52747,-2.42779 l 1.52747,-2.13525 -1.39678,-2.15987 c -0.76822,-1.18792 -1.74385,-2.94965 -2.16807,-3.91495 l -0.7713,-1.75508 -2.83854,0.16372 -2.83854,0.16373 -0.62877,-2.07602 c -0.55561,-1.83445 -1.51455,-5.70291 -1.91175,-7.71224 -0.1377,-0.6966 -0.11145,-0.71744 2.33134,-1.85129 l 2.47061,-1.14676 0.0391,-4.07849 c 0.0215,-2.24318 0.048,-4.25575 0.0587,-4.47238 0.0127,-0.25581 -0.72137,-0.83421 -2.09401,-1.64993 -1.16248,-0.69083 -2.26195,-1.3459 -2.44329,-1.45572 -0.27824,-0.1685 -0.24916,-0.52495 0.18627,-2.28368 0.28378,-1.14622 0.96054,-3.44131 1.50391,-5.10022 l 0.98795,-3.01619 1.76132,0.14945 c 0.96873,0.0822 2.20387,0.20876 2.74476,0.28125 l 0.98344,0.13181 1.06305,-2.11667 c 0.58468,-1.16417 1.64892,-2.97707 2.36499,-4.02867 1.47819,-2.17087 1.50398,-1.82328 -0.34056,-4.58895 -0.60301,-0.90414 -1.16556,-1.7621 -1.25011,-1.90657 -0.0884,-0.15103 1.44118,-1.78217 3.59883,-3.83778 l 3.75255,-3.57511 2.01064,1.37193 c 1.10586,0.75456 2.16252,1.47707 2.34814,1.60557 0.2307,0.15971 0.46753,0.14177 0.74846,-0.0567 1.32723,-0.93764 5.1818,-3.1356 6.28207,-3.58217 l 1.29162,-0.52423 v -2.89916 -2.89916 l 1.23292,-0.36737 c 1.53164,-0.45636 8.06349,-1.99926 8.46389,-1.99926 0.1619,0 0.84621,1.10963 1.5207,2.46585 l 1.22635,2.46585 h 3.60871 c 1.98477,0 4.07257,0.0596 4.63953,0.13244 l 1.03086,0.13244 1.3484,-2.57905 1.34842,-2.57906 2.99618,0.78295 c 1.64791,0.43062 3.78879,1.03587 4.75751,1.345 l 1.76133,0.56205 -0.0677,2.92165 -0.0677,2.92165 1.50126,0.77112 c 0.82569,0.42412 2.6368,1.5103 4.02469,2.41373 l 2.52344,1.64261 2.38377,-1.53801 2.38377,-1.53802 1.70261,1.78404 c 0.93644,0.98123 1.70262,1.88616 1.70262,2.01096 0,0.20059 -4.97351,5.12452 -9.80237,9.70468 l -1.70027,1.6127 -1.23527,-1.16808 c -4.0784,-3.85659 -9.21241,-6.50551 -15.05357,-7.76695 -2.89545,-0.6253 -9.39168,-0.56035 -12.27537,0.12273 -9.4875,2.24736 -16.91314,8.09692 -21.21469,16.7119 -3.39926,6.80793 -4.01205,15.42525 -1.62079,22.79228 2.40261,7.40194 8.87934,14.74845 16.05117,18.20671 6.93522,3.34415 15.05768,3.92332 22.51532,1.60544 7.27328,-2.2606 13.97316,-7.72029 17.68422,-14.41077 0.39404,-0.7104 1.22043,-2.55978 1.83642,-4.10975 0.61599,-1.54996 1.14465,-2.84799 1.1748,-2.88451 0.093,-0.11257 15.01705,3.9933 15.23731,4.19203 0.11747,0.10601 -0.0418,1.18414 -0.36816,2.49261 l -0.57518,2.30579 -2.91963,-0.0676 -2.91967,-0.0676 -1.34339,2.66374 c -0.73889,1.46505 -1.75299,3.23304 -2.2536,3.92885 l -0.91018,1.26512 1.3852,2.19871 c 0.76185,1.20931 1.44715,2.36016 1.52286,2.55744 0.0944,0.24601 -0.98608,1.4596 -3.4385,3.86215 -1.9669,1.92688 -3.67245,3.50342 -3.79011,3.50342 -0.11768,0 -1.22127,-0.69746 -2.45246,-1.5499 l -2.23852,-1.5499 -2.08391,1.40806 c -1.14615,0.77443 -2.93917,1.81533 -3.98448,2.31314 l -1.90059,0.90507 0.0585,2.91065 0.0585,2.91071 -1.52648,0.44452 c -2.87612,0.8376 -7.6822,2.07103 -8.06974,2.07103 -0.25715,0 -0.79377,-0.81703 -1.59611,-2.43033 l -1.20869,-2.43036 h -4.62509 -4.62509 l -1.20869,2.43036 c -0.86485,1.73897 -1.32601,2.42559 -1.62108,2.41361 -0.22681,-0.009 -1.89189,-0.415 -3.70018,-0.90175 z m 179.10695,-38.12415 c -0.48324,-1.0656 -0.98039,-2.17163 -1.10477,-2.45784 -0.22116,-0.50904 -0.32858,-0.52186 -4.91987,-0.58711 l -4.69376,-0.0667 -1.25479,2.34765 c -0.69017,1.2912 -1.29125,2.38407 -1.33577,2.4286 -0.1042,0.1042 -8.18007,-2.23902 -9.23304,-2.67897 -0.65069,-0.27188 -0.77517,-0.43139 -0.67352,-0.86313 0.0686,-0.29129 0.19656,-1.53543 0.28445,-2.76476 l 0.15976,-2.23515 -1.48344,-0.70039 c -0.81587,-0.38521 -2.613,-1.45182 -3.9936,-2.37023 l -2.51015,-1.66984 -2.27576,1.49011 c -1.79094,1.17268 -2.36501,1.44233 -2.69481,1.26581 -0.23053,-0.12336 -1.11739,-0.9785 -1.97085,-1.90031 l -1.55176,-1.67603 1.81608,-1.67744 c 0.99882,-0.92258 3.66712,-3.43328 5.92952,-5.57931 l 4.11345,-3.90189 1.62004,1.50496 c 3.70933,3.44579 8.65849,6.05328 13.99122,7.37134 3.14436,0.77717 9.39459,0.79512 12.59023,0.0362 9.96918,-2.36767 17.7012,-8.66783 21.751,-17.723 4.35141,-9.72971 3.41524,-20.34211 -2.59488,-29.41491 -5.88028,-8.87678 -16.48177,-14.25118 -26.93207,-13.65314 -7.53726,0.43135 -14.54232,3.54708 -19.86243,8.83449 -3.5138,3.49218 -5.71113,6.94942 -7.39126,11.6291 -0.48335,1.34632 -0.89744,2.14143 -1.1407,2.19029 -0.21003,0.0422 -1.88601,-0.34582 -3.72438,-0.86224 -1.83838,-0.51642 -5.1919,-1.44272 -7.45226,-2.05844 -2.26036,-0.61573 -4.14753,-1.14618 -4.19372,-1.17878 -0.10697,-0.0755 0.94855,-4.47287 1.15308,-4.80378 0.10446,-0.16904 1.02304,-0.1848 2.89758,-0.0497 l 2.74468,0.19779 1.03659,-1.94862 c 0.57012,-1.07174 1.62904,-2.8575 2.35312,-3.96834 0.72409,-1.11084 1.26955,-2.13861 1.21219,-2.28392 -0.0574,-0.14532 -0.74758,-1.20438 -1.53379,-2.35349 l -1.42944,-2.08928 1.14216,-1.31594 c 1.96987,-2.26958 6.12717,-6.17958 6.44199,-6.05877 0.16569,0.0636 1.22288,0.76041 2.3494,1.54854 1.12649,0.78813 2.09335,1.43297 2.14857,1.43297 0.0553,0 0.97592,-0.56973 2.04597,-1.26607 1.07003,-0.69634 2.8583,-1.71793 3.97389,-2.2702 l 2.0284,-1.00413 -0.12367,-2.86353 -0.12369,-2.86352 1.66581,-0.50597 c 2.6714,-0.81141 7.61098,-2.14294 7.94968,-2.14294 0.17108,0 0.8664,1.13605 1.54514,2.52456 l 1.23412,2.52456 1.87875,-0.15481 c 1.03331,-0.0851 3.1469,-0.0991 4.69686,-0.0311 l 2.81813,0.12371 1.14676,-2.49346 c 0.79909,-1.73754 1.26753,-2.49347 1.54514,-2.49347 0.39028,0 4.87809,1.18897 8.08688,2.14248 l 1.61994,0.48137 -0.13184,2.85654 -0.13182,2.85654 1.65373,0.80467 c 1.35927,0.6614 3.25191,1.78274 6.05927,3.58997 0.26919,0.17329 0.91898,-0.14708 2.66205,-1.31249 l 2.30595,-1.54173 3.85485,3.65572 c 2.12016,2.01065 3.85482,3.7455 3.85482,3.85523 0,0.10973 -0.68691,1.22689 -1.52649,2.48257 -0.83955,1.25568 -1.52646,2.3042 -1.52646,2.33003 0,0.0258 0.48779,0.77431 1.08397,1.66327 0.59622,0.88896 1.59489,2.63427 2.21935,3.87847 l 1.13533,2.26219 1.00976,-0.0833 c 4.02817,-0.3324 4.17372,-0.32139 4.50797,0.34095 0.68022,1.34788 2.72513,8.48277 2.72513,9.50813 0,0.20982 -1.00793,0.84915 -2.52455,1.60134 l -2.52458,1.25207 0.0375,4.46201 0.0375,4.46202 2.30958,1.18396 c 1.27026,0.65117 2.34056,1.34465 2.37836,1.54105 0.0848,0.44028 -1.36083,6.07403 -2.13301,8.3126 l -0.56706,1.6439 -2.91018,-0.06 -2.91018,-0.06 -0.70453,1.46701 c -0.38748,0.80686 -1.41787,2.55383 -2.28973,3.88216 -0.87185,1.32834 -1.58517,2.45944 -1.58517,2.51356 0,0.0541 0.64709,1.15444 1.43796,2.44516 l 1.43798,2.34676 -1.21848,1.40089 c -1.04003,1.19575 -4.72007,4.69407 -5.90503,5.61341 -0.38502,0.29873 -0.52742,0.21488 -3.91091,-2.30289 l -0.99579,-0.74098 -2.17458,1.40812 c -1.19605,0.77446 -3.00672,1.81637 -4.0237,2.31536 l -1.84912,0.90726 0.15245,2.74769 0.1524,2.74768 -1.59113,0.46868 c -1.99353,0.5872 -8.17194,2.13803 -8.51781,2.13803 -0.14165,0 -0.65291,-0.87186 -1.13617,-1.93746 z M 275.9736,209.1898 c -1.76742,-0.49444 -3.33814,-1.36357 -4.51591,-2.4988 -1.00777,-0.97135 -1.12008,-1.18446 -1.11802,-2.1211 0.003,-0.62837 0.24394,-1.55342 0.61177,-2.33289 l 0.60949,-1.29164 0.32396,1.23759 c 0.44654,1.70575 0.90572,2.51966 2.08928,3.70322 1.582,1.58198 4.15351,2.68205 6.28531,2.6888 1.30985,0.004 1.06548,0.37052 -0.45016,0.6749 -1.64976,0.33132 -2.48328,0.31826 -3.83572,-0.0601 z" style="fill:#003087;stroke:none"/>
</svg>
